name C:\Users\antoi\Documents\MyRepositories\upper-imu-dc\Results\main_tracking\Case_78\FLX01_angularVelocities_groundFrame.mot
datacolumns 4
datarows 70
range 0.71000000 1.40000000
endheader 
time	radius_imu_x	radius_imu_y	radius_imu_z	
          0.71000000	         -0.35025357	          0.40669163	          0.60893775	
          0.72000000	         -0.36702728	          0.40670542	          0.64591379	
          0.73000000	         -0.38362250	          0.40980461	          0.68354140	
          0.74000000	         -0.39990599	          0.41659435	          0.72158311	
          0.75000000	         -0.41566409	          0.42744887	          0.75982741	
          0.76000000	         -0.43073023	          0.44278624	          0.79800414	
          0.77000000	         -0.44494262	          0.46277074	          0.83589498	
          0.78000000	         -0.45814991	          0.48733031	          0.87334001	
          0.79000000	         -0.47016288	          0.51606978	          0.91024675	
          0.80000000	         -0.48078102	          0.54826750	          0.94660707	
          0.81000000	         -0.49003014	          0.58281762	          0.98270697	
          0.82000000	         -0.49814220	          0.61723159	          1.01853899	
          0.83000000	         -0.50536199	          0.64904710	          1.05431046	
          0.84000000	         -0.51157229	          0.67709059	          1.09046395	
          0.85000000	         -0.51640360	          0.70033500	          1.12714521	
          0.86000000	         -0.51949351	          0.71788772	          1.16451232	
          0.87000000	         -0.52050115	          0.72910870	          1.20275170	
          0.88000000	         -0.51913282	          0.73356386	          1.24205927	
          0.89000000	         -0.51497535	          0.73111052	          1.28248287	
          0.90000000	         -0.50766473	          0.72174442	          1.32401838	
          0.91000000	         -0.49696072	          0.70563120	          1.36662792	
          0.92000000	         -0.48265519	          0.68330355	          1.41011135	
          0.93000000	         -0.46469103	          0.65556088	          1.45417134	
          0.94000000	         -0.44317312	          0.62341218	          1.49843682	
          0.95000000	         -0.41839035	          0.58809746	          1.54245009	
          0.96000000	         -0.39086968	          0.55105998	          1.58568046	
          0.97000000	         -0.36136841	          0.51392628	          1.62752732	
          0.98000000	         -0.33075786	          0.47837324	          1.66733354	
          0.99000000	         -0.30020412	          0.44623950	          1.70434986	
          1.00000000	         -0.27094201	          0.41910864	          1.73788120	
          1.01000000	         -0.24402357	          0.39801917	          1.76748332	
          1.02000000	         -0.22078689	          0.38416800	          1.79271906	
          1.03000000	         -0.20241655	          0.37833790	          1.81301773	
          1.04000000	         -0.18956798	          0.38038830	          1.82819364	
          1.05000000	         -0.18352458	          0.39098727	          1.83779852	
          1.06000000	         -0.18454938	          0.40922519	          1.84210777	
          1.07000000	         -0.19265457	          0.43381959	          1.84155253	
          1.08000000	         -0.20826506	          0.46424695	          1.83611750	
          1.09000000	         -0.23117279	          0.49928610	          1.82612468	
          1.10000000	         -0.26093440	          0.53759942	          1.81204194	
          1.11000000	         -0.29703671	          0.57788120	          1.79439083	
          1.12000000	         -0.33886710	          0.61891839	          1.77364975	
          1.13000000	         -0.38565117	          0.65954301	          1.75030446	
          1.14000000	         -0.43654256	          0.69868969	          1.72484612	
          1.15000000	         -0.49072057	          0.73546618	          1.69772606	
          1.16000000	         -0.54730412	          0.76909056	          1.66937992	
          1.17000000	         -0.60539306	          0.79891728	          1.64022294	
          1.18000000	         -0.66416096	          0.82447643	          1.61064511	
          1.19000000	         -0.72274910	          0.84541979	          1.58098407	
          1.20000000	         -0.78044638	          0.86160626	          1.55148425	
          1.21000000	         -0.83655970	          0.87296526	          1.52243086	
          1.22000000	         -0.89054257	          0.87960080	          1.49398765	
          1.23000000	         -0.94189153	          0.88166143	          1.46631805	
          1.24000000	         -0.99029228	          0.87943771	          1.43945432	
          1.25000000	         -1.03534905	          0.87317511	          1.41349173	
          1.26000000	         -1.07701129	          0.86325803	          1.38837523	
          1.27000000	         -1.11493698	          0.84992280	          1.36409344	
          1.28000000	         -1.14915662	          0.83352735	          1.34059006	
          1.29000000	         -1.17964626	          0.81438851	          1.31783428	
          1.30000000	         -1.20591553	          0.79266757	          1.29581806	
          1.31000000	         -1.22823870	          0.76879256	          1.27442591	
          1.32000000	         -1.24668042	          0.74304931	          1.25358101	
          1.33000000	         -1.26110265	          0.71567163	          1.23330366	
          1.34000000	         -1.27143304	          0.68692042	          1.21360092	
          1.35000000	         -1.27784328	          0.65711696	          1.19434259	
          1.36000000	         -1.28062002	          0.62657759	          1.17548518	
          1.37000000	         -1.27995831	          0.59556243	          1.15703094	
          1.38000000	         -1.27625371	          0.56435063	          1.13895289	
          1.39000000	         -1.26981477	          0.53317804	          1.12125648	
          1.40000000	         -1.26114053	          0.50230713	          1.10391966	
